<?xml version="1.0" encoding="UTF-8"?>
<mxfile host="drawio-plugin" modified="2023-05-11T08:42:47.550Z"
        agent="5.0 (Windows NT 6.2; Win64; x64) AppleWebKit/537.36 (KHTML, like Gecko) Chrome/81.0.4044.113 Safari/537.36"
        etag="b4rvB9Hyk6hXLVEPJBp4" version="13.7.9" type="embed">
    <diagram id="lNPZZ_e-28soofFFy49H" name="Page-1">
        <mxGraphModel dx="385" dy="528" grid="1" gridSize="10" guides="1" tooltips="1" connect="1" arrows="1" fold="1"
                      page="1" pageScale="1" pageWidth="850" pageHeight="1100" math="0" shadow="0">
            <root>
                <mxCell id="0"/>
                <mxCell id="1" parent="0"/>

                                                            <!-- 实体 -->
                        <mxCell id="8b4c9b28c3444ad09d33d7c20c12efb5" value="任务组" style="rounded=0;whiteSpace=wrap;html=1;"
                                parent="1" vertex="1">
                            <mxGeometry x="0" y="0" width="120" height="60"
                                        as="geometry"/>
                        </mxCell>
                    
                    
                                                        
                                            <!-- 属性 -->
                        <mxCell id="03a5dc5211b049b5a9e36ec600296b1e" value="ID" style="ellipse;whiteSpace=wrap;html=1;" parent="1"
                                vertex="1">
                            <mxGeometry x="0" y="200" width="120" height="60"
                                        as="geometry"/>
                        </mxCell>
                    
                                                        
                    
                                            <!-- 连线 -->
                        <mxCell id="6582aba41e9c4d56b6b418d0b97d5b10" value="" style="endArrow=none;html=1;" parent="1"
                                source="8b4c9b28c3444ad09d33d7c20c12efb5" target="03a5dc5211b049b5a9e36ec600296b1e" edge="1">
                            <mxGeometry width="50" height="50" relative="1" as="geometry">
                                <mxPoint as="sourcePoint"/>
                                <mxPoint as="targetPoint"/>
                            </mxGeometry>
                        </mxCell>
                                                        
                                            <!-- 属性 -->
                        <mxCell id="5ce15e16b21f4c9d9c1b186591248991" value="执行器appname" style="ellipse;whiteSpace=wrap;html=1;" parent="1"
                                vertex="1">
                            <mxGeometry x="100" y="200" width="120" height="60"
                                        as="geometry"/>
                        </mxCell>
                    
                                                        
                    
                                            <!-- 连线 -->
                        <mxCell id="1e16d86e5db84a3e91da89f8a134677a" value="" style="endArrow=none;html=1;" parent="1"
                                source="8b4c9b28c3444ad09d33d7c20c12efb5" target="5ce15e16b21f4c9d9c1b186591248991" edge="1">
                            <mxGeometry width="50" height="50" relative="1" as="geometry">
                                <mxPoint as="sourcePoint"/>
                                <mxPoint as="targetPoint"/>
                            </mxGeometry>
                        </mxCell>
                                                        
                                            <!-- 属性 -->
                        <mxCell id="4b9198d0cef7455dae5ca8753da92278" value="执行器名称" style="ellipse;whiteSpace=wrap;html=1;" parent="1"
                                vertex="1">
                            <mxGeometry x="200" y="200" width="120" height="60"
                                        as="geometry"/>
                        </mxCell>
                    
                                                        
                    
                                            <!-- 连线 -->
                        <mxCell id="5793d6c7ebc047ec9a9665e917375723" value="" style="endArrow=none;html=1;" parent="1"
                                source="8b4c9b28c3444ad09d33d7c20c12efb5" target="4b9198d0cef7455dae5ca8753da92278" edge="1">
                            <mxGeometry width="50" height="50" relative="1" as="geometry">
                                <mxPoint as="sourcePoint"/>
                                <mxPoint as="targetPoint"/>
                            </mxGeometry>
                        </mxCell>
                                                        
                                            <!-- 属性 -->
                        <mxCell id="bf8b911f094149759edbd731db8ea61d" value="执行器地址类型：0=自动注册、1=手动录入" style="ellipse;whiteSpace=wrap;html=1;" parent="1"
                                vertex="1">
                            <mxGeometry x="300" y="200" width="120" height="60"
                                        as="geometry"/>
                        </mxCell>
                    
                                                        
                    
                                            <!-- 连线 -->
                        <mxCell id="315a1de314b44cf99b106dae0532e612" value="" style="endArrow=none;html=1;" parent="1"
                                source="8b4c9b28c3444ad09d33d7c20c12efb5" target="bf8b911f094149759edbd731db8ea61d" edge="1">
                            <mxGeometry width="50" height="50" relative="1" as="geometry">
                                <mxPoint as="sourcePoint"/>
                                <mxPoint as="targetPoint"/>
                            </mxGeometry>
                        </mxCell>
                                                        
                                            <!-- 属性 -->
                        <mxCell id="dbd815ca264f4ddda643339d284ecca3" value="执行器地址列表，多地址逗号分隔" style="ellipse;whiteSpace=wrap;html=1;" parent="1"
                                vertex="1">
                            <mxGeometry x="400" y="200" width="120" height="60"
                                        as="geometry"/>
                        </mxCell>
                    
                                                        
                    
                                            <!-- 连线 -->
                        <mxCell id="fe49171f0e924cb4acfc24aed249fe62" value="" style="endArrow=none;html=1;" parent="1"
                                source="8b4c9b28c3444ad09d33d7c20c12efb5" target="dbd815ca264f4ddda643339d284ecca3" edge="1">
                            <mxGeometry width="50" height="50" relative="1" as="geometry">
                                <mxPoint as="sourcePoint"/>
                                <mxPoint as="targetPoint"/>
                            </mxGeometry>
                        </mxCell>
                                                        
                                            <!-- 属性 -->
                        <mxCell id="b51e563bc0a944b3a6e1791b5f907fea" value="更新时间" style="ellipse;whiteSpace=wrap;html=1;" parent="1"
                                vertex="1">
                            <mxGeometry x="500" y="200" width="120" height="60"
                                        as="geometry"/>
                        </mxCell>
                    
                                                        
                    
                                            <!-- 连线 -->
                        <mxCell id="6e1afa1af2f04b3bb5d0b527d49faa50" value="" style="endArrow=none;html=1;" parent="1"
                                source="8b4c9b28c3444ad09d33d7c20c12efb5" target="b51e563bc0a944b3a6e1791b5f907fea" edge="1">
                            <mxGeometry width="50" height="50" relative="1" as="geometry">
                                <mxPoint as="sourcePoint"/>
                                <mxPoint as="targetPoint"/>
                            </mxGeometry>
                        </mxCell>
                                                                                <!-- 实体 -->
                        <mxCell id="1d04bc43f9b3413e93608fa752bb66fc" value="XXL任务信息" style="rounded=0;whiteSpace=wrap;html=1;"
                                parent="1" vertex="1">
                            <mxGeometry x="0" y="400" width="120" height="60"
                                        as="geometry"/>
                        </mxCell>
                    
                    
                                                        
                                            <!-- 属性 -->
                        <mxCell id="1c7f96ecfd3a42669be8d2b5340018f6" value="ID" style="ellipse;whiteSpace=wrap;html=1;" parent="1"
                                vertex="1">
                            <mxGeometry x="0" y="600" width="120" height="60"
                                        as="geometry"/>
                        </mxCell>
                    
                                                        
                    
                                            <!-- 连线 -->
                        <mxCell id="87e0ffcf46e2484a92616c3bd32c1f54" value="" style="endArrow=none;html=1;" parent="1"
                                source="1d04bc43f9b3413e93608fa752bb66fc" target="1c7f96ecfd3a42669be8d2b5340018f6" edge="1">
                            <mxGeometry width="50" height="50" relative="1" as="geometry">
                                <mxPoint as="sourcePoint"/>
                                <mxPoint as="targetPoint"/>
                            </mxGeometry>
                        </mxCell>
                                                        
                                            <!-- 属性 -->
                        <mxCell id="739386307100442d89c2fee0d9254fa4" value="执行器主键id" style="ellipse;whiteSpace=wrap;html=1;" parent="1"
                                vertex="1">
                            <mxGeometry x="100" y="600" width="120" height="60"
                                        as="geometry"/>
                        </mxCell>
                    
                                                        
                    
                                            <!-- 连线 -->
                        <mxCell id="6660761a10744914974fbcce14301535" value="" style="endArrow=none;html=1;" parent="1"
                                source="1d04bc43f9b3413e93608fa752bb66fc" target="739386307100442d89c2fee0d9254fa4" edge="1">
                            <mxGeometry width="50" height="50" relative="1" as="geometry">
                                <mxPoint as="sourcePoint"/>
                                <mxPoint as="targetPoint"/>
                            </mxGeometry>
                        </mxCell>
                                                        
                                            <!-- 属性 -->
                        <mxCell id="6c32b58d99474ca682faa7a228251024" value="任务降序" style="ellipse;whiteSpace=wrap;html=1;" parent="1"
                                vertex="1">
                            <mxGeometry x="200" y="600" width="120" height="60"
                                        as="geometry"/>
                        </mxCell>
                    
                                                        
                    
                                            <!-- 连线 -->
                        <mxCell id="9073c88b5d304deda84c4ee5b9d6b32e" value="" style="endArrow=none;html=1;" parent="1"
                                source="1d04bc43f9b3413e93608fa752bb66fc" target="6c32b58d99474ca682faa7a228251024" edge="1">
                            <mxGeometry width="50" height="50" relative="1" as="geometry">
                                <mxPoint as="sourcePoint"/>
                                <mxPoint as="targetPoint"/>
                            </mxGeometry>
                        </mxCell>
                                                        
                                            <!-- 属性 -->
                        <mxCell id="45c4035354e242ad8809a6563a70cb91" value="加时间" style="ellipse;whiteSpace=wrap;html=1;" parent="1"
                                vertex="1">
                            <mxGeometry x="300" y="600" width="120" height="60"
                                        as="geometry"/>
                        </mxCell>
                    
                                                        
                    
                                            <!-- 连线 -->
                        <mxCell id="4729d60894c5452fa81eddca83c8e38f" value="" style="endArrow=none;html=1;" parent="1"
                                source="1d04bc43f9b3413e93608fa752bb66fc" target="45c4035354e242ad8809a6563a70cb91" edge="1">
                            <mxGeometry width="50" height="50" relative="1" as="geometry">
                                <mxPoint as="sourcePoint"/>
                                <mxPoint as="targetPoint"/>
                            </mxGeometry>
                        </mxCell>
                                                        
                                            <!-- 属性 -->
                        <mxCell id="84d9c4e813784c6094b3e7cc5a61f12f" value="更新时间" style="ellipse;whiteSpace=wrap;html=1;" parent="1"
                                vertex="1">
                            <mxGeometry x="400" y="600" width="120" height="60"
                                        as="geometry"/>
                        </mxCell>
                    
                                                        
                    
                                            <!-- 连线 -->
                        <mxCell id="38200a51a43e41d992bdd31bda9c1c3f" value="" style="endArrow=none;html=1;" parent="1"
                                source="1d04bc43f9b3413e93608fa752bb66fc" target="84d9c4e813784c6094b3e7cc5a61f12f" edge="1">
                            <mxGeometry width="50" height="50" relative="1" as="geometry">
                                <mxPoint as="sourcePoint"/>
                                <mxPoint as="targetPoint"/>
                            </mxGeometry>
                        </mxCell>
                                                        
                                            <!-- 属性 -->
                        <mxCell id="51caeb77701542bab8ce7aeac5fca8c7" value="作者" style="ellipse;whiteSpace=wrap;html=1;" parent="1"
                                vertex="1">
                            <mxGeometry x="500" y="600" width="120" height="60"
                                        as="geometry"/>
                        </mxCell>
                    
                                                        
                    
                                            <!-- 连线 -->
                        <mxCell id="d34d0c8edb0b4181b71461443f074f79" value="" style="endArrow=none;html=1;" parent="1"
                                source="1d04bc43f9b3413e93608fa752bb66fc" target="51caeb77701542bab8ce7aeac5fca8c7" edge="1">
                            <mxGeometry width="50" height="50" relative="1" as="geometry">
                                <mxPoint as="sourcePoint"/>
                                <mxPoint as="targetPoint"/>
                            </mxGeometry>
                        </mxCell>
                                                        
                                            <!-- 属性 -->
                        <mxCell id="9d1f595df09342698bbff9bb60fa60f9" value="报警邮件" style="ellipse;whiteSpace=wrap;html=1;" parent="1"
                                vertex="1">
                            <mxGeometry x="600" y="600" width="120" height="60"
                                        as="geometry"/>
                        </mxCell>
                    
                                                        
                    
                                            <!-- 连线 -->
                        <mxCell id="1e8e2f1674ae4a4fb1c8d149f951985b" value="" style="endArrow=none;html=1;" parent="1"
                                source="1d04bc43f9b3413e93608fa752bb66fc" target="9d1f595df09342698bbff9bb60fa60f9" edge="1">
                            <mxGeometry width="50" height="50" relative="1" as="geometry">
                                <mxPoint as="sourcePoint"/>
                                <mxPoint as="targetPoint"/>
                            </mxGeometry>
                        </mxCell>
                                                        
                                            <!-- 属性 -->
                        <mxCell id="67b955941f524737b3eaf05a162e7335" value="调度类型" style="ellipse;whiteSpace=wrap;html=1;" parent="1"
                                vertex="1">
                            <mxGeometry x="700" y="600" width="120" height="60"
                                        as="geometry"/>
                        </mxCell>
                    
                                                        
                    
                                            <!-- 连线 -->
                        <mxCell id="cb6e4f51cb8349f0ab9d55a51e2e10d8" value="" style="endArrow=none;html=1;" parent="1"
                                source="1d04bc43f9b3413e93608fa752bb66fc" target="67b955941f524737b3eaf05a162e7335" edge="1">
                            <mxGeometry width="50" height="50" relative="1" as="geometry">
                                <mxPoint as="sourcePoint"/>
                                <mxPoint as="targetPoint"/>
                            </mxGeometry>
                        </mxCell>
                                                        
                                            <!-- 属性 -->
                        <mxCell id="4768cae224c74da692ebe63db4d43a62" value="调度配置，值含义取决于调度类型" style="ellipse;whiteSpace=wrap;html=1;" parent="1"
                                vertex="1">
                            <mxGeometry x="800" y="600" width="120" height="60"
                                        as="geometry"/>
                        </mxCell>
                    
                                                        
                    
                                            <!-- 连线 -->
                        <mxCell id="28efa173213d47d18f04634415342048" value="" style="endArrow=none;html=1;" parent="1"
                                source="1d04bc43f9b3413e93608fa752bb66fc" target="4768cae224c74da692ebe63db4d43a62" edge="1">
                            <mxGeometry width="50" height="50" relative="1" as="geometry">
                                <mxPoint as="sourcePoint"/>
                                <mxPoint as="targetPoint"/>
                            </mxGeometry>
                        </mxCell>
                                                        
                                            <!-- 属性 -->
                        <mxCell id="bc7a001b2fb94569a3f28fa208388abe" value="调度过期策略" style="ellipse;whiteSpace=wrap;html=1;" parent="1"
                                vertex="1">
                            <mxGeometry x="900" y="600" width="120" height="60"
                                        as="geometry"/>
                        </mxCell>
                    
                                                        
                    
                                            <!-- 连线 -->
                        <mxCell id="57c91d590c914da0bd280a2a1685dd16" value="" style="endArrow=none;html=1;" parent="1"
                                source="1d04bc43f9b3413e93608fa752bb66fc" target="bc7a001b2fb94569a3f28fa208388abe" edge="1">
                            <mxGeometry width="50" height="50" relative="1" as="geometry">
                                <mxPoint as="sourcePoint"/>
                                <mxPoint as="targetPoint"/>
                            </mxGeometry>
                        </mxCell>
                                                        
                                            <!-- 属性 -->
                        <mxCell id="99abe58e381146b8b478a1282d3b4192" value="执行器路由策略" style="ellipse;whiteSpace=wrap;html=1;" parent="1"
                                vertex="1">
                            <mxGeometry x="1000" y="600" width="120" height="60"
                                        as="geometry"/>
                        </mxCell>
                    
                                                        
                    
                                            <!-- 连线 -->
                        <mxCell id="05fa299eba3240b997902ba8e51a6baa" value="" style="endArrow=none;html=1;" parent="1"
                                source="1d04bc43f9b3413e93608fa752bb66fc" target="99abe58e381146b8b478a1282d3b4192" edge="1">
                            <mxGeometry width="50" height="50" relative="1" as="geometry">
                                <mxPoint as="sourcePoint"/>
                                <mxPoint as="targetPoint"/>
                            </mxGeometry>
                        </mxCell>
                                                        
                                            <!-- 属性 -->
                        <mxCell id="304b91d19e284581830e4c3525af6c07" value="执行器任务handler" style="ellipse;whiteSpace=wrap;html=1;" parent="1"
                                vertex="1">
                            <mxGeometry x="1100" y="600" width="120" height="60"
                                        as="geometry"/>
                        </mxCell>
                    
                                                        
                    
                                            <!-- 连线 -->
                        <mxCell id="e1258de0fa3f4cedb273c7c23c7695db" value="" style="endArrow=none;html=1;" parent="1"
                                source="1d04bc43f9b3413e93608fa752bb66fc" target="304b91d19e284581830e4c3525af6c07" edge="1">
                            <mxGeometry width="50" height="50" relative="1" as="geometry">
                                <mxPoint as="sourcePoint"/>
                                <mxPoint as="targetPoint"/>
                            </mxGeometry>
                        </mxCell>
                                                        
                                            <!-- 属性 -->
                        <mxCell id="780d8f2a8c504e82ae2c8169420d05d6" value="执行器任务参数" style="ellipse;whiteSpace=wrap;html=1;" parent="1"
                                vertex="1">
                            <mxGeometry x="1200" y="600" width="120" height="60"
                                        as="geometry"/>
                        </mxCell>
                    
                                                        
                    
                                            <!-- 连线 -->
                        <mxCell id="28e9b3511bfa4c64b25fb9a7b7443a77" value="" style="endArrow=none;html=1;" parent="1"
                                source="1d04bc43f9b3413e93608fa752bb66fc" target="780d8f2a8c504e82ae2c8169420d05d6" edge="1">
                            <mxGeometry width="50" height="50" relative="1" as="geometry">
                                <mxPoint as="sourcePoint"/>
                                <mxPoint as="targetPoint"/>
                            </mxGeometry>
                        </mxCell>
                                                        
                                            <!-- 属性 -->
                        <mxCell id="38dcf7be456745b9a2f965c9b912fb76" value="阻塞处理策略" style="ellipse;whiteSpace=wrap;html=1;" parent="1"
                                vertex="1">
                            <mxGeometry x="1300" y="600" width="120" height="60"
                                        as="geometry"/>
                        </mxCell>
                    
                                                        
                    
                                            <!-- 连线 -->
                        <mxCell id="e8caea6ac790423e9faa88447121820d" value="" style="endArrow=none;html=1;" parent="1"
                                source="1d04bc43f9b3413e93608fa752bb66fc" target="38dcf7be456745b9a2f965c9b912fb76" edge="1">
                            <mxGeometry width="50" height="50" relative="1" as="geometry">
                                <mxPoint as="sourcePoint"/>
                                <mxPoint as="targetPoint"/>
                            </mxGeometry>
                        </mxCell>
                                                        
                                            <!-- 属性 -->
                        <mxCell id="70753522e1d84a2c9bdcc92042c45662" value="任务执行超时时间，单位秒" style="ellipse;whiteSpace=wrap;html=1;" parent="1"
                                vertex="1">
                            <mxGeometry x="1400" y="600" width="120" height="60"
                                        as="geometry"/>
                        </mxCell>
                    
                                                        
                    
                                            <!-- 连线 -->
                        <mxCell id="13604b518e90423c887f67672966d42a" value="" style="endArrow=none;html=1;" parent="1"
                                source="1d04bc43f9b3413e93608fa752bb66fc" target="70753522e1d84a2c9bdcc92042c45662" edge="1">
                            <mxGeometry width="50" height="50" relative="1" as="geometry">
                                <mxPoint as="sourcePoint"/>
                                <mxPoint as="targetPoint"/>
                            </mxGeometry>
                        </mxCell>
                                                        
                                            <!-- 属性 -->
                        <mxCell id="86a9219007844b95801a29b5e6e345d4" value="失败重试次数" style="ellipse;whiteSpace=wrap;html=1;" parent="1"
                                vertex="1">
                            <mxGeometry x="1500" y="600" width="120" height="60"
                                        as="geometry"/>
                        </mxCell>
                    
                                                        
                    
                                            <!-- 连线 -->
                        <mxCell id="2967b0dbde494cbabd59056a3d738045" value="" style="endArrow=none;html=1;" parent="1"
                                source="1d04bc43f9b3413e93608fa752bb66fc" target="86a9219007844b95801a29b5e6e345d4" edge="1">
                            <mxGeometry width="50" height="50" relative="1" as="geometry">
                                <mxPoint as="sourcePoint"/>
                                <mxPoint as="targetPoint"/>
                            </mxGeometry>
                        </mxCell>
                                                        
                                            <!-- 属性 -->
                        <mxCell id="d00dc7d2b16c4bd8a7c356515d58571f" value="glue类型" style="ellipse;whiteSpace=wrap;html=1;" parent="1"
                                vertex="1">
                            <mxGeometry x="1600" y="600" width="120" height="60"
                                        as="geometry"/>
                        </mxCell>
                    
                                                        
                    
                                            <!-- 连线 -->
                        <mxCell id="7021a27a538e4355be1a6553b8dc578b" value="" style="endArrow=none;html=1;" parent="1"
                                source="1d04bc43f9b3413e93608fa752bb66fc" target="d00dc7d2b16c4bd8a7c356515d58571f" edge="1">
                            <mxGeometry width="50" height="50" relative="1" as="geometry">
                                <mxPoint as="sourcePoint"/>
                                <mxPoint as="targetPoint"/>
                            </mxGeometry>
                        </mxCell>
                                                        
                                            <!-- 属性 -->
                        <mxCell id="2f7787ccd7214db1b96891a0e45051d8" value="glue源代码" style="ellipse;whiteSpace=wrap;html=1;" parent="1"
                                vertex="1">
                            <mxGeometry x="1700" y="600" width="120" height="60"
                                        as="geometry"/>
                        </mxCell>
                    
                                                        
                    
                                            <!-- 连线 -->
                        <mxCell id="707475d5fc274bf69504c2a99e7c8345" value="" style="endArrow=none;html=1;" parent="1"
                                source="1d04bc43f9b3413e93608fa752bb66fc" target="2f7787ccd7214db1b96891a0e45051d8" edge="1">
                            <mxGeometry width="50" height="50" relative="1" as="geometry">
                                <mxPoint as="sourcePoint"/>
                                <mxPoint as="targetPoint"/>
                            </mxGeometry>
                        </mxCell>
                                                        
                                            <!-- 属性 -->
                        <mxCell id="4953b46ea8d944e5993a8645ff869c70" value="胶水备注" style="ellipse;whiteSpace=wrap;html=1;" parent="1"
                                vertex="1">
                            <mxGeometry x="1800" y="600" width="120" height="60"
                                        as="geometry"/>
                        </mxCell>
                    
                                                        
                    
                                            <!-- 连线 -->
                        <mxCell id="6ead8de0695248b09363c36e34c510eb" value="" style="endArrow=none;html=1;" parent="1"
                                source="1d04bc43f9b3413e93608fa752bb66fc" target="4953b46ea8d944e5993a8645ff869c70" edge="1">
                            <mxGeometry width="50" height="50" relative="1" as="geometry">
                                <mxPoint as="sourcePoint"/>
                                <mxPoint as="targetPoint"/>
                            </mxGeometry>
                        </mxCell>
                                                        
                                            <!-- 属性 -->
                        <mxCell id="e1213cc2381046d3a4082c4696628ffc" value="glue更新时间" style="ellipse;whiteSpace=wrap;html=1;" parent="1"
                                vertex="1">
                            <mxGeometry x="1900" y="600" width="120" height="60"
                                        as="geometry"/>
                        </mxCell>
                    
                                                        
                    
                                            <!-- 连线 -->
                        <mxCell id="730c33c4531f41fdb4398ac717506636" value="" style="endArrow=none;html=1;" parent="1"
                                source="1d04bc43f9b3413e93608fa752bb66fc" target="e1213cc2381046d3a4082c4696628ffc" edge="1">
                            <mxGeometry width="50" height="50" relative="1" as="geometry">
                                <mxPoint as="sourcePoint"/>
                                <mxPoint as="targetPoint"/>
                            </mxGeometry>
                        </mxCell>
                                                        
                                            <!-- 属性 -->
                        <mxCell id="f033bc7d5ec047ab8b828fd3e625d63f" value="子任务id，多个逗号分隔" style="ellipse;whiteSpace=wrap;html=1;" parent="1"
                                vertex="1">
                            <mxGeometry x="2000" y="600" width="120" height="60"
                                        as="geometry"/>
                        </mxCell>
                    
                                                        
                    
                                            <!-- 连线 -->
                        <mxCell id="48101d0f93724fbc95d236c038735f37" value="" style="endArrow=none;html=1;" parent="1"
                                source="1d04bc43f9b3413e93608fa752bb66fc" target="f033bc7d5ec047ab8b828fd3e625d63f" edge="1">
                            <mxGeometry width="50" height="50" relative="1" as="geometry">
                                <mxPoint as="sourcePoint"/>
                                <mxPoint as="targetPoint"/>
                            </mxGeometry>
                        </mxCell>
                                                        
                                            <!-- 属性 -->
                        <mxCell id="5023d7c7201d497e9da891aca50be387" value="调度状态：0-停止，1-运行" style="ellipse;whiteSpace=wrap;html=1;" parent="1"
                                vertex="1">
                            <mxGeometry x="2100" y="600" width="120" height="60"
                                        as="geometry"/>
                        </mxCell>
                    
                                                        
                    
                                            <!-- 连线 -->
                        <mxCell id="4bedbe1ea0d044a2998f765a0d99bdbf" value="" style="endArrow=none;html=1;" parent="1"
                                source="1d04bc43f9b3413e93608fa752bb66fc" target="5023d7c7201d497e9da891aca50be387" edge="1">
                            <mxGeometry width="50" height="50" relative="1" as="geometry">
                                <mxPoint as="sourcePoint"/>
                                <mxPoint as="targetPoint"/>
                            </mxGeometry>
                        </mxCell>
                                                        
                                            <!-- 属性 -->
                        <mxCell id="15e2454c4d204d259cce0ed57d20b4bf" value="上次调度时间" style="ellipse;whiteSpace=wrap;html=1;" parent="1"
                                vertex="1">
                            <mxGeometry x="2200" y="600" width="120" height="60"
                                        as="geometry"/>
                        </mxCell>
                    
                                                        
                    
                                            <!-- 连线 -->
                        <mxCell id="88e70ea2519d4488bb9250b568ee3a96" value="" style="endArrow=none;html=1;" parent="1"
                                source="1d04bc43f9b3413e93608fa752bb66fc" target="15e2454c4d204d259cce0ed57d20b4bf" edge="1">
                            <mxGeometry width="50" height="50" relative="1" as="geometry">
                                <mxPoint as="sourcePoint"/>
                                <mxPoint as="targetPoint"/>
                            </mxGeometry>
                        </mxCell>
                                                        
                                            <!-- 属性 -->
                        <mxCell id="59f75d7d4c894c3fa0b5c91576bf783e" value="下次调度时间" style="ellipse;whiteSpace=wrap;html=1;" parent="1"
                                vertex="1">
                            <mxGeometry x="2300" y="600" width="120" height="60"
                                        as="geometry"/>
                        </mxCell>
                    
                                                        
                    
                                            <!-- 连线 -->
                        <mxCell id="b4661fda5ea140aab75f09d1378b70ab" value="" style="endArrow=none;html=1;" parent="1"
                                source="1d04bc43f9b3413e93608fa752bb66fc" target="59f75d7d4c894c3fa0b5c91576bf783e" edge="1">
                            <mxGeometry width="50" height="50" relative="1" as="geometry">
                                <mxPoint as="sourcePoint"/>
                                <mxPoint as="targetPoint"/>
                            </mxGeometry>
                        </mxCell>
                                                                                <!-- 实体 -->
                        <mxCell id="de9d1c37516842c5aec5a7c78b608942" value="XXL任务锁" style="rounded=0;whiteSpace=wrap;html=1;"
                                parent="1" vertex="1">
                            <mxGeometry x="0" y="800" width="120" height="60"
                                        as="geometry"/>
                        </mxCell>
                    
                    
                                                        
                                            <!-- 属性 -->
                        <mxCell id="f1591ce78aa14eeaa3dde4a7f4407818" value="锁名称" style="ellipse;whiteSpace=wrap;html=1;" parent="1"
                                vertex="1">
                            <mxGeometry x="0" y="1000" width="120" height="60"
                                        as="geometry"/>
                        </mxCell>
                    
                                                        
                    
                                            <!-- 连线 -->
                        <mxCell id="cd8d065580e24b4a9060265377329ace" value="" style="endArrow=none;html=1;" parent="1"
                                source="de9d1c37516842c5aec5a7c78b608942" target="f1591ce78aa14eeaa3dde4a7f4407818" edge="1">
                            <mxGeometry width="50" height="50" relative="1" as="geometry">
                                <mxPoint as="sourcePoint"/>
                                <mxPoint as="targetPoint"/>
                            </mxGeometry>
                        </mxCell>
                                                                                <!-- 实体 -->
                        <mxCell id="600dbbcd98d4443ebfc5d4c60fd9790f" value="XXL任务日志" style="rounded=0;whiteSpace=wrap;html=1;"
                                parent="1" vertex="1">
                            <mxGeometry x="0" y="1200" width="120" height="60"
                                        as="geometry"/>
                        </mxCell>
                    
                    
                                                        
                                            <!-- 属性 -->
                        <mxCell id="a9a15ec2c3f24a5781baadf3d7d6bc03" value="ID" style="ellipse;whiteSpace=wrap;html=1;" parent="1"
                                vertex="1">
                            <mxGeometry x="0" y="1400" width="120" height="60"
                                        as="geometry"/>
                        </mxCell>
                    
                                                        
                    
                                            <!-- 连线 -->
                        <mxCell id="fdf4ccf254a94c2e9354dc52a4ed0b1b" value="" style="endArrow=none;html=1;" parent="1"
                                source="600dbbcd98d4443ebfc5d4c60fd9790f" target="a9a15ec2c3f24a5781baadf3d7d6bc03" edge="1">
                            <mxGeometry width="50" height="50" relative="1" as="geometry">
                                <mxPoint as="sourcePoint"/>
                                <mxPoint as="targetPoint"/>
                            </mxGeometry>
                        </mxCell>
                                                        
                                            <!-- 属性 -->
                        <mxCell id="93c14feba873456fab53bf50636dbf46" value="执行器主键id" style="ellipse;whiteSpace=wrap;html=1;" parent="1"
                                vertex="1">
                            <mxGeometry x="100" y="1400" width="120" height="60"
                                        as="geometry"/>
                        </mxCell>
                    
                                                        
                    
                                            <!-- 连线 -->
                        <mxCell id="2c69266289c7400193f779855d24df0e" value="" style="endArrow=none;html=1;" parent="1"
                                source="600dbbcd98d4443ebfc5d4c60fd9790f" target="93c14feba873456fab53bf50636dbf46" edge="1">
                            <mxGeometry width="50" height="50" relative="1" as="geometry">
                                <mxPoint as="sourcePoint"/>
                                <mxPoint as="targetPoint"/>
                            </mxGeometry>
                        </mxCell>
                                                        
                                            <!-- 属性 -->
                        <mxCell id="2378555c40924db68a20e5d4adfd16ff" value="任务，主键id" style="ellipse;whiteSpace=wrap;html=1;" parent="1"
                                vertex="1">
                            <mxGeometry x="200" y="1400" width="120" height="60"
                                        as="geometry"/>
                        </mxCell>
                    
                                                        
                    
                                            <!-- 连线 -->
                        <mxCell id="84a52dc86ea94c0a86372969b5487972" value="" style="endArrow=none;html=1;" parent="1"
                                source="600dbbcd98d4443ebfc5d4c60fd9790f" target="2378555c40924db68a20e5d4adfd16ff" edge="1">
                            <mxGeometry width="50" height="50" relative="1" as="geometry">
                                <mxPoint as="sourcePoint"/>
                                <mxPoint as="targetPoint"/>
                            </mxGeometry>
                        </mxCell>
                                                        
                                            <!-- 属性 -->
                        <mxCell id="f8487a2102d848d1a9d51e62cc88f33a" value="执行器地址，本次执行的地址" style="ellipse;whiteSpace=wrap;html=1;" parent="1"
                                vertex="1">
                            <mxGeometry x="300" y="1400" width="120" height="60"
                                        as="geometry"/>
                        </mxCell>
                    
                                                        
                    
                                            <!-- 连线 -->
                        <mxCell id="ac13d531a00348de80521d17de4d91b6" value="" style="endArrow=none;html=1;" parent="1"
                                source="600dbbcd98d4443ebfc5d4c60fd9790f" target="f8487a2102d848d1a9d51e62cc88f33a" edge="1">
                            <mxGeometry width="50" height="50" relative="1" as="geometry">
                                <mxPoint as="sourcePoint"/>
                                <mxPoint as="targetPoint"/>
                            </mxGeometry>
                        </mxCell>
                                                        
                                            <!-- 属性 -->
                        <mxCell id="fbb24cf8a14946a1956c2362594828dd" value="执行器任务handler" style="ellipse;whiteSpace=wrap;html=1;" parent="1"
                                vertex="1">
                            <mxGeometry x="400" y="1400" width="120" height="60"
                                        as="geometry"/>
                        </mxCell>
                    
                                                        
                    
                                            <!-- 连线 -->
                        <mxCell id="0981f93129684034a4ce7693b9ee127f" value="" style="endArrow=none;html=1;" parent="1"
                                source="600dbbcd98d4443ebfc5d4c60fd9790f" target="fbb24cf8a14946a1956c2362594828dd" edge="1">
                            <mxGeometry width="50" height="50" relative="1" as="geometry">
                                <mxPoint as="sourcePoint"/>
                                <mxPoint as="targetPoint"/>
                            </mxGeometry>
                        </mxCell>
                                                        
                                            <!-- 属性 -->
                        <mxCell id="4e1668892a644e94b4dd6d0d371acd9e" value="执行器任务参数" style="ellipse;whiteSpace=wrap;html=1;" parent="1"
                                vertex="1">
                            <mxGeometry x="500" y="1400" width="120" height="60"
                                        as="geometry"/>
                        </mxCell>
                    
                                                        
                    
                                            <!-- 连线 -->
                        <mxCell id="24b68cb84477469fbd34d09cff312882" value="" style="endArrow=none;html=1;" parent="1"
                                source="600dbbcd98d4443ebfc5d4c60fd9790f" target="4e1668892a644e94b4dd6d0d371acd9e" edge="1">
                            <mxGeometry width="50" height="50" relative="1" as="geometry">
                                <mxPoint as="sourcePoint"/>
                                <mxPoint as="targetPoint"/>
                            </mxGeometry>
                        </mxCell>
                                                        
                                            <!-- 属性 -->
                        <mxCell id="3f670fd1e4924a4e9ef6ce7b8f383fc5" value="执行器任务分片参数，格式如 1/2" style="ellipse;whiteSpace=wrap;html=1;" parent="1"
                                vertex="1">
                            <mxGeometry x="600" y="1400" width="120" height="60"
                                        as="geometry"/>
                        </mxCell>
                    
                                                        
                    
                                            <!-- 连线 -->
                        <mxCell id="468bb61427bb47eb88b02c35a1f69ca1" value="" style="endArrow=none;html=1;" parent="1"
                                source="600dbbcd98d4443ebfc5d4c60fd9790f" target="3f670fd1e4924a4e9ef6ce7b8f383fc5" edge="1">
                            <mxGeometry width="50" height="50" relative="1" as="geometry">
                                <mxPoint as="sourcePoint"/>
                                <mxPoint as="targetPoint"/>
                            </mxGeometry>
                        </mxCell>
                                                        
                                            <!-- 属性 -->
                        <mxCell id="5075cd113e6d464b98a6f397712ce211" value="失败重试次数" style="ellipse;whiteSpace=wrap;html=1;" parent="1"
                                vertex="1">
                            <mxGeometry x="700" y="1400" width="120" height="60"
                                        as="geometry"/>
                        </mxCell>
                    
                                                        
                    
                                            <!-- 连线 -->
                        <mxCell id="d73154cd18e441caa9df925fdb48e43c" value="" style="endArrow=none;html=1;" parent="1"
                                source="600dbbcd98d4443ebfc5d4c60fd9790f" target="5075cd113e6d464b98a6f397712ce211" edge="1">
                            <mxGeometry width="50" height="50" relative="1" as="geometry">
                                <mxPoint as="sourcePoint"/>
                                <mxPoint as="targetPoint"/>
                            </mxGeometry>
                        </mxCell>
                                                        
                                            <!-- 属性 -->
                        <mxCell id="6839b46cd01e4ea89b5c4baba340c3e1" value="调度-时间" style="ellipse;whiteSpace=wrap;html=1;" parent="1"
                                vertex="1">
                            <mxGeometry x="800" y="1400" width="120" height="60"
                                        as="geometry"/>
                        </mxCell>
                    
                                                        
                    
                                            <!-- 连线 -->
                        <mxCell id="8e6fdd9d36e041b3891b188813223d9f" value="" style="endArrow=none;html=1;" parent="1"
                                source="600dbbcd98d4443ebfc5d4c60fd9790f" target="6839b46cd01e4ea89b5c4baba340c3e1" edge="1">
                            <mxGeometry width="50" height="50" relative="1" as="geometry">
                                <mxPoint as="sourcePoint"/>
                                <mxPoint as="targetPoint"/>
                            </mxGeometry>
                        </mxCell>
                                                        
                                            <!-- 属性 -->
                        <mxCell id="94bb5e5683af44a19b0c82a06ae7f04c" value="调度-结果" style="ellipse;whiteSpace=wrap;html=1;" parent="1"
                                vertex="1">
                            <mxGeometry x="900" y="1400" width="120" height="60"
                                        as="geometry"/>
                        </mxCell>
                    
                                                        
                    
                                            <!-- 连线 -->
                        <mxCell id="8b9b377a49bc492e805f9e9af6145035" value="" style="endArrow=none;html=1;" parent="1"
                                source="600dbbcd98d4443ebfc5d4c60fd9790f" target="94bb5e5683af44a19b0c82a06ae7f04c" edge="1">
                            <mxGeometry width="50" height="50" relative="1" as="geometry">
                                <mxPoint as="sourcePoint"/>
                                <mxPoint as="targetPoint"/>
                            </mxGeometry>
                        </mxCell>
                                                        
                                            <!-- 属性 -->
                        <mxCell id="1c920b9324b8411580a04fee905a31ac" value="调度-日志" style="ellipse;whiteSpace=wrap;html=1;" parent="1"
                                vertex="1">
                            <mxGeometry x="1000" y="1400" width="120" height="60"
                                        as="geometry"/>
                        </mxCell>
                    
                                                        
                    
                                            <!-- 连线 -->
                        <mxCell id="032c10aaf5fc482c884b1b18c098d40e" value="" style="endArrow=none;html=1;" parent="1"
                                source="600dbbcd98d4443ebfc5d4c60fd9790f" target="1c920b9324b8411580a04fee905a31ac" edge="1">
                            <mxGeometry width="50" height="50" relative="1" as="geometry">
                                <mxPoint as="sourcePoint"/>
                                <mxPoint as="targetPoint"/>
                            </mxGeometry>
                        </mxCell>
                                                        
                                            <!-- 属性 -->
                        <mxCell id="f3e8e5689a024930bb458a2f7375fc7e" value="执行-时间" style="ellipse;whiteSpace=wrap;html=1;" parent="1"
                                vertex="1">
                            <mxGeometry x="1100" y="1400" width="120" height="60"
                                        as="geometry"/>
                        </mxCell>
                    
                                                        
                    
                                            <!-- 连线 -->
                        <mxCell id="976dea00e8474ce7b6da702bd5c11174" value="" style="endArrow=none;html=1;" parent="1"
                                source="600dbbcd98d4443ebfc5d4c60fd9790f" target="f3e8e5689a024930bb458a2f7375fc7e" edge="1">
                            <mxGeometry width="50" height="50" relative="1" as="geometry">
                                <mxPoint as="sourcePoint"/>
                                <mxPoint as="targetPoint"/>
                            </mxGeometry>
                        </mxCell>
                                                        
                                            <!-- 属性 -->
                        <mxCell id="7032e86c32c94a61b54895cc1cfc2a4a" value="执行-状态" style="ellipse;whiteSpace=wrap;html=1;" parent="1"
                                vertex="1">
                            <mxGeometry x="1200" y="1400" width="120" height="60"
                                        as="geometry"/>
                        </mxCell>
                    
                                                        
                    
                                            <!-- 连线 -->
                        <mxCell id="f935bdb06d9d418cba58b17ff596b1da" value="" style="endArrow=none;html=1;" parent="1"
                                source="600dbbcd98d4443ebfc5d4c60fd9790f" target="7032e86c32c94a61b54895cc1cfc2a4a" edge="1">
                            <mxGeometry width="50" height="50" relative="1" as="geometry">
                                <mxPoint as="sourcePoint"/>
                                <mxPoint as="targetPoint"/>
                            </mxGeometry>
                        </mxCell>
                                                        
                                            <!-- 属性 -->
                        <mxCell id="88135ba5cba640c482de5a1b328781a5" value="执行-日志" style="ellipse;whiteSpace=wrap;html=1;" parent="1"
                                vertex="1">
                            <mxGeometry x="1300" y="1400" width="120" height="60"
                                        as="geometry"/>
                        </mxCell>
                    
                                                        
                    
                                            <!-- 连线 -->
                        <mxCell id="86d7bec805f048d1bf278c414f82fdc0" value="" style="endArrow=none;html=1;" parent="1"
                                source="600dbbcd98d4443ebfc5d4c60fd9790f" target="88135ba5cba640c482de5a1b328781a5" edge="1">
                            <mxGeometry width="50" height="50" relative="1" as="geometry">
                                <mxPoint as="sourcePoint"/>
                                <mxPoint as="targetPoint"/>
                            </mxGeometry>
                        </mxCell>
                                                        
                                            <!-- 属性 -->
                        <mxCell id="0e009684dba1437f862fe8b087fbc01a" value="告警状态：0-默认、1-无需告警、2-告警成功、3-告警失败" style="ellipse;whiteSpace=wrap;html=1;" parent="1"
                                vertex="1">
                            <mxGeometry x="1400" y="1400" width="120" height="60"
                                        as="geometry"/>
                        </mxCell>
                    
                                                        
                    
                                            <!-- 连线 -->
                        <mxCell id="a9c6ab029b73412c898e85202c5cd391" value="" style="endArrow=none;html=1;" parent="1"
                                source="600dbbcd98d4443ebfc5d4c60fd9790f" target="0e009684dba1437f862fe8b087fbc01a" edge="1">
                            <mxGeometry width="50" height="50" relative="1" as="geometry">
                                <mxPoint as="sourcePoint"/>
                                <mxPoint as="targetPoint"/>
                            </mxGeometry>
                        </mxCell>
                                                                                <!-- 实体 -->
                        <mxCell id="4a5da06aaf754441a212f8e3a1758349" value="XXL任务日志报表" style="rounded=0;whiteSpace=wrap;html=1;"
                                parent="1" vertex="1">
                            <mxGeometry x="0" y="1600" width="120" height="60"
                                        as="geometry"/>
                        </mxCell>
                    
                    
                                                        
                                            <!-- 属性 -->
                        <mxCell id="5ba77e7f86e0400fbe2d98c2a54a18ba" value="ID" style="ellipse;whiteSpace=wrap;html=1;" parent="1"
                                vertex="1">
                            <mxGeometry x="0" y="1800" width="120" height="60"
                                        as="geometry"/>
                        </mxCell>
                    
                                                        
                    
                                            <!-- 连线 -->
                        <mxCell id="fdd654b2239345ec8153dc746a89f66d" value="" style="endArrow=none;html=1;" parent="1"
                                source="4a5da06aaf754441a212f8e3a1758349" target="5ba77e7f86e0400fbe2d98c2a54a18ba" edge="1">
                            <mxGeometry width="50" height="50" relative="1" as="geometry">
                                <mxPoint as="sourcePoint"/>
                                <mxPoint as="targetPoint"/>
                            </mxGeometry>
                        </mxCell>
                                                        
                                            <!-- 属性 -->
                        <mxCell id="59cd943fc5144c2ea5c0f68ccf56b025" value="调度-时间" style="ellipse;whiteSpace=wrap;html=1;" parent="1"
                                vertex="1">
                            <mxGeometry x="100" y="1800" width="120" height="60"
                                        as="geometry"/>
                        </mxCell>
                    
                                                        
                    
                                            <!-- 连线 -->
                        <mxCell id="1ec0a48dfa1e405788efe2aaebd30c77" value="" style="endArrow=none;html=1;" parent="1"
                                source="4a5da06aaf754441a212f8e3a1758349" target="59cd943fc5144c2ea5c0f68ccf56b025" edge="1">
                            <mxGeometry width="50" height="50" relative="1" as="geometry">
                                <mxPoint as="sourcePoint"/>
                                <mxPoint as="targetPoint"/>
                            </mxGeometry>
                        </mxCell>
                                                        
                                            <!-- 属性 -->
                        <mxCell id="519812858b804b70959de2b1c3008b83" value="运行中-日志数量" style="ellipse;whiteSpace=wrap;html=1;" parent="1"
                                vertex="1">
                            <mxGeometry x="200" y="1800" width="120" height="60"
                                        as="geometry"/>
                        </mxCell>
                    
                                                        
                    
                                            <!-- 连线 -->
                        <mxCell id="f374905bedbf4f16ba29f36945e964ef" value="" style="endArrow=none;html=1;" parent="1"
                                source="4a5da06aaf754441a212f8e3a1758349" target="519812858b804b70959de2b1c3008b83" edge="1">
                            <mxGeometry width="50" height="50" relative="1" as="geometry">
                                <mxPoint as="sourcePoint"/>
                                <mxPoint as="targetPoint"/>
                            </mxGeometry>
                        </mxCell>
                                                        
                                            <!-- 属性 -->
                        <mxCell id="c89a41f3a5b445c4a997ad1b707c940b" value="执行成功-日志数量" style="ellipse;whiteSpace=wrap;html=1;" parent="1"
                                vertex="1">
                            <mxGeometry x="300" y="1800" width="120" height="60"
                                        as="geometry"/>
                        </mxCell>
                    
                                                        
                    
                                            <!-- 连线 -->
                        <mxCell id="7793b70b330843cf92e19c6725f94d14" value="" style="endArrow=none;html=1;" parent="1"
                                source="4a5da06aaf754441a212f8e3a1758349" target="c89a41f3a5b445c4a997ad1b707c940b" edge="1">
                            <mxGeometry width="50" height="50" relative="1" as="geometry">
                                <mxPoint as="sourcePoint"/>
                                <mxPoint as="targetPoint"/>
                            </mxGeometry>
                        </mxCell>
                                                        
                                            <!-- 属性 -->
                        <mxCell id="eca6710710a8451bbea7deca637a7898" value="执行失败-日志数量" style="ellipse;whiteSpace=wrap;html=1;" parent="1"
                                vertex="1">
                            <mxGeometry x="400" y="1800" width="120" height="60"
                                        as="geometry"/>
                        </mxCell>
                    
                                                        
                    
                                            <!-- 连线 -->
                        <mxCell id="e4f4e9c007894b00913ac2885e26cfda" value="" style="endArrow=none;html=1;" parent="1"
                                source="4a5da06aaf754441a212f8e3a1758349" target="eca6710710a8451bbea7deca637a7898" edge="1">
                            <mxGeometry width="50" height="50" relative="1" as="geometry">
                                <mxPoint as="sourcePoint"/>
                                <mxPoint as="targetPoint"/>
                            </mxGeometry>
                        </mxCell>
                                                        
                                            <!-- 属性 -->
                        <mxCell id="431fb080c9a64fad88e745e7b68242cb" value="更新时间" style="ellipse;whiteSpace=wrap;html=1;" parent="1"
                                vertex="1">
                            <mxGeometry x="500" y="1800" width="120" height="60"
                                        as="geometry"/>
                        </mxCell>
                    
                                                        
                    
                                            <!-- 连线 -->
                        <mxCell id="7f8ca7c218bc4fa1af8e68cfe305cc17" value="" style="endArrow=none;html=1;" parent="1"
                                source="4a5da06aaf754441a212f8e3a1758349" target="431fb080c9a64fad88e745e7b68242cb" edge="1">
                            <mxGeometry width="50" height="50" relative="1" as="geometry">
                                <mxPoint as="sourcePoint"/>
                                <mxPoint as="targetPoint"/>
                            </mxGeometry>
                        </mxCell>
                                                                                <!-- 实体 -->
                        <mxCell id="3a6f99313d334184a572f8ab5dadd518" value="XXL任务logglue" style="rounded=0;whiteSpace=wrap;html=1;"
                                parent="1" vertex="1">
                            <mxGeometry x="0" y="2000" width="120" height="60"
                                        as="geometry"/>
                        </mxCell>
                    
                    
                                                        
                                            <!-- 属性 -->
                        <mxCell id="d52e68d21fb34e68add3d086080e0dc2" value="ID" style="ellipse;whiteSpace=wrap;html=1;" parent="1"
                                vertex="1">
                            <mxGeometry x="0" y="2200" width="120" height="60"
                                        as="geometry"/>
                        </mxCell>
                    
                                                        
                    
                                            <!-- 连线 -->
                        <mxCell id="d3ebfd2d92cf44d7964290f63c61038d" value="" style="endArrow=none;html=1;" parent="1"
                                source="3a6f99313d334184a572f8ab5dadd518" target="d52e68d21fb34e68add3d086080e0dc2" edge="1">
                            <mxGeometry width="50" height="50" relative="1" as="geometry">
                                <mxPoint as="sourcePoint"/>
                                <mxPoint as="targetPoint"/>
                            </mxGeometry>
                        </mxCell>
                                                        
                                            <!-- 属性 -->
                        <mxCell id="386a5511d3014610bf47cae0d3063189" value="任务，主键id" style="ellipse;whiteSpace=wrap;html=1;" parent="1"
                                vertex="1">
                            <mxGeometry x="100" y="2200" width="120" height="60"
                                        as="geometry"/>
                        </mxCell>
                    
                                                        
                    
                                            <!-- 连线 -->
                        <mxCell id="b47a56fffbb84ef48f3b76d6c9fc21de" value="" style="endArrow=none;html=1;" parent="1"
                                source="3a6f99313d334184a572f8ab5dadd518" target="386a5511d3014610bf47cae0d3063189" edge="1">
                            <mxGeometry width="50" height="50" relative="1" as="geometry">
                                <mxPoint as="sourcePoint"/>
                                <mxPoint as="targetPoint"/>
                            </mxGeometry>
                        </mxCell>
                                                        
                                            <!-- 属性 -->
                        <mxCell id="5e508e0977d841f3adfb76d08d210209" value="glue类型" style="ellipse;whiteSpace=wrap;html=1;" parent="1"
                                vertex="1">
                            <mxGeometry x="200" y="2200" width="120" height="60"
                                        as="geometry"/>
                        </mxCell>
                    
                                                        
                    
                                            <!-- 连线 -->
                        <mxCell id="67838ea9921c46d08ae6d8e5bcb099e7" value="" style="endArrow=none;html=1;" parent="1"
                                source="3a6f99313d334184a572f8ab5dadd518" target="5e508e0977d841f3adfb76d08d210209" edge="1">
                            <mxGeometry width="50" height="50" relative="1" as="geometry">
                                <mxPoint as="sourcePoint"/>
                                <mxPoint as="targetPoint"/>
                            </mxGeometry>
                        </mxCell>
                                                        
                                            <!-- 属性 -->
                        <mxCell id="13416607a0654ce9ae146e2fca49ba61" value="glue源代码" style="ellipse;whiteSpace=wrap;html=1;" parent="1"
                                vertex="1">
                            <mxGeometry x="300" y="2200" width="120" height="60"
                                        as="geometry"/>
                        </mxCell>
                    
                                                        
                    
                                            <!-- 连线 -->
                        <mxCell id="1509283914dc4ffeb85ea02912d979bd" value="" style="endArrow=none;html=1;" parent="1"
                                source="3a6f99313d334184a572f8ab5dadd518" target="13416607a0654ce9ae146e2fca49ba61" edge="1">
                            <mxGeometry width="50" height="50" relative="1" as="geometry">
                                <mxPoint as="sourcePoint"/>
                                <mxPoint as="targetPoint"/>
                            </mxGeometry>
                        </mxCell>
                                                        
                                            <!-- 属性 -->
                        <mxCell id="aaf4813d9821485ba9ad58c4f6a16d8d" value="glue备注" style="ellipse;whiteSpace=wrap;html=1;" parent="1"
                                vertex="1">
                            <mxGeometry x="400" y="2200" width="120" height="60"
                                        as="geometry"/>
                        </mxCell>
                    
                                                        
                    
                                            <!-- 连线 -->
                        <mxCell id="343ada4b9dfe43a1978f1c7a7ced9577" value="" style="endArrow=none;html=1;" parent="1"
                                source="3a6f99313d334184a572f8ab5dadd518" target="aaf4813d9821485ba9ad58c4f6a16d8d" edge="1">
                            <mxGeometry width="50" height="50" relative="1" as="geometry">
                                <mxPoint as="sourcePoint"/>
                                <mxPoint as="targetPoint"/>
                            </mxGeometry>
                        </mxCell>
                                                        
                                            <!-- 属性 -->
                        <mxCell id="f7fb2b284535426a8d70c212ad441a6d" value="加时间" style="ellipse;whiteSpace=wrap;html=1;" parent="1"
                                vertex="1">
                            <mxGeometry x="500" y="2200" width="120" height="60"
                                        as="geometry"/>
                        </mxCell>
                    
                                                        
                    
                                            <!-- 连线 -->
                        <mxCell id="097f9dd2f4cb438bbca66fc9c6147d13" value="" style="endArrow=none;html=1;" parent="1"
                                source="3a6f99313d334184a572f8ab5dadd518" target="f7fb2b284535426a8d70c212ad441a6d" edge="1">
                            <mxGeometry width="50" height="50" relative="1" as="geometry">
                                <mxPoint as="sourcePoint"/>
                                <mxPoint as="targetPoint"/>
                            </mxGeometry>
                        </mxCell>
                                                        
                                            <!-- 属性 -->
                        <mxCell id="d3eb2de363d6455ebeb28ef7e30543cc" value="更新时间" style="ellipse;whiteSpace=wrap;html=1;" parent="1"
                                vertex="1">
                            <mxGeometry x="600" y="2200" width="120" height="60"
                                        as="geometry"/>
                        </mxCell>
                    
                                                        
                    
                                            <!-- 连线 -->
                        <mxCell id="f0a32e5812014d338d47f760a10516e2" value="" style="endArrow=none;html=1;" parent="1"
                                source="3a6f99313d334184a572f8ab5dadd518" target="d3eb2de363d6455ebeb28ef7e30543cc" edge="1">
                            <mxGeometry width="50" height="50" relative="1" as="geometry">
                                <mxPoint as="sourcePoint"/>
                                <mxPoint as="targetPoint"/>
                            </mxGeometry>
                        </mxCell>
                                                                                <!-- 实体 -->
                        <mxCell id="9201c066535b4bd3ba0897e4d23ab0c0" value="XXL任务注册" style="rounded=0;whiteSpace=wrap;html=1;"
                                parent="1" vertex="1">
                            <mxGeometry x="0" y="2400" width="120" height="60"
                                        as="geometry"/>
                        </mxCell>
                    
                    
                                                        
                                            <!-- 属性 -->
                        <mxCell id="eff81f1d56af41f0ba5ac05d7ce8c023" value="ID" style="ellipse;whiteSpace=wrap;html=1;" parent="1"
                                vertex="1">
                            <mxGeometry x="0" y="2600" width="120" height="60"
                                        as="geometry"/>
                        </mxCell>
                    
                                                        
                    
                                            <!-- 连线 -->
                        <mxCell id="47e5a3bac51f4994af86fd2dfade5dae" value="" style="endArrow=none;html=1;" parent="1"
                                source="9201c066535b4bd3ba0897e4d23ab0c0" target="eff81f1d56af41f0ba5ac05d7ce8c023" edge="1">
                            <mxGeometry width="50" height="50" relative="1" as="geometry">
                                <mxPoint as="sourcePoint"/>
                                <mxPoint as="targetPoint"/>
                            </mxGeometry>
                        </mxCell>
                                                        
                                            <!-- 属性 -->
                        <mxCell id="5e43dbbde6e4492c9a2864a94ce4e9b6" value="注册组" style="ellipse;whiteSpace=wrap;html=1;" parent="1"
                                vertex="1">
                            <mxGeometry x="100" y="2600" width="120" height="60"
                                        as="geometry"/>
                        </mxCell>
                    
                                                        
                    
                                            <!-- 连线 -->
                        <mxCell id="eab67c616be74a7da44d488dc827e9ce" value="" style="endArrow=none;html=1;" parent="1"
                                source="9201c066535b4bd3ba0897e4d23ab0c0" target="5e43dbbde6e4492c9a2864a94ce4e9b6" edge="1">
                            <mxGeometry width="50" height="50" relative="1" as="geometry">
                                <mxPoint as="sourcePoint"/>
                                <mxPoint as="targetPoint"/>
                            </mxGeometry>
                        </mxCell>
                                                        
                                            <!-- 属性 -->
                        <mxCell id="1d5568600aae4a46b3ec5b465efeea5b" value="注册键" style="ellipse;whiteSpace=wrap;html=1;" parent="1"
                                vertex="1">
                            <mxGeometry x="200" y="2600" width="120" height="60"
                                        as="geometry"/>
                        </mxCell>
                    
                                                        
                    
                                            <!-- 连线 -->
                        <mxCell id="c6f5834f991945fda0e6d95f4a86f646" value="" style="endArrow=none;html=1;" parent="1"
                                source="9201c066535b4bd3ba0897e4d23ab0c0" target="1d5568600aae4a46b3ec5b465efeea5b" edge="1">
                            <mxGeometry width="50" height="50" relative="1" as="geometry">
                                <mxPoint as="sourcePoint"/>
                                <mxPoint as="targetPoint"/>
                            </mxGeometry>
                        </mxCell>
                                                        
                                            <!-- 属性 -->
                        <mxCell id="9162508aed8447c2b243d203d1c7dd9a" value="注册值" style="ellipse;whiteSpace=wrap;html=1;" parent="1"
                                vertex="1">
                            <mxGeometry x="300" y="2600" width="120" height="60"
                                        as="geometry"/>
                        </mxCell>
                    
                                                        
                    
                                            <!-- 连线 -->
                        <mxCell id="c68db303450e452092214fdda95087dc" value="" style="endArrow=none;html=1;" parent="1"
                                source="9201c066535b4bd3ba0897e4d23ab0c0" target="9162508aed8447c2b243d203d1c7dd9a" edge="1">
                            <mxGeometry width="50" height="50" relative="1" as="geometry">
                                <mxPoint as="sourcePoint"/>
                                <mxPoint as="targetPoint"/>
                            </mxGeometry>
                        </mxCell>
                                                        
                                            <!-- 属性 -->
                        <mxCell id="72d4e8cd891d4a20af8ac11b1d756662" value="更新时间" style="ellipse;whiteSpace=wrap;html=1;" parent="1"
                                vertex="1">
                            <mxGeometry x="400" y="2600" width="120" height="60"
                                        as="geometry"/>
                        </mxCell>
                    
                                                        
                    
                                            <!-- 连线 -->
                        <mxCell id="994aa7f5e7e84f2f8a6b663bb33c466b" value="" style="endArrow=none;html=1;" parent="1"
                                source="9201c066535b4bd3ba0897e4d23ab0c0" target="72d4e8cd891d4a20af8ac11b1d756662" edge="1">
                            <mxGeometry width="50" height="50" relative="1" as="geometry">
                                <mxPoint as="sourcePoint"/>
                                <mxPoint as="targetPoint"/>
                            </mxGeometry>
                        </mxCell>
                                                                                <!-- 实体 -->
                        <mxCell id="15f7f0ad7aa4406894fc104e1f5be44e" value="XXL任务用户" style="rounded=0;whiteSpace=wrap;html=1;"
                                parent="1" vertex="1">
                            <mxGeometry x="0" y="2800" width="120" height="60"
                                        as="geometry"/>
                        </mxCell>
                    
                    
                                                        
                                            <!-- 属性 -->
                        <mxCell id="08e9c9bb4c5f42b682661633ed5dbd36" value="ID" style="ellipse;whiteSpace=wrap;html=1;" parent="1"
                                vertex="1">
                            <mxGeometry x="0" y="3000" width="120" height="60"
                                        as="geometry"/>
                        </mxCell>
                    
                                                        
                    
                                            <!-- 连线 -->
                        <mxCell id="0334a13fef334bd7883ed096aec56d01" value="" style="endArrow=none;html=1;" parent="1"
                                source="15f7f0ad7aa4406894fc104e1f5be44e" target="08e9c9bb4c5f42b682661633ed5dbd36" edge="1">
                            <mxGeometry width="50" height="50" relative="1" as="geometry">
                                <mxPoint as="sourcePoint"/>
                                <mxPoint as="targetPoint"/>
                            </mxGeometry>
                        </mxCell>
                                                        
                                            <!-- 属性 -->
                        <mxCell id="0278155133594961bce5f4d80c402bd0" value="账号" style="ellipse;whiteSpace=wrap;html=1;" parent="1"
                                vertex="1">
                            <mxGeometry x="100" y="3000" width="120" height="60"
                                        as="geometry"/>
                        </mxCell>
                    
                                                        
                    
                                            <!-- 连线 -->
                        <mxCell id="600f918c5eee4a5aaac4bc4f158cca90" value="" style="endArrow=none;html=1;" parent="1"
                                source="15f7f0ad7aa4406894fc104e1f5be44e" target="0278155133594961bce5f4d80c402bd0" edge="1">
                            <mxGeometry width="50" height="50" relative="1" as="geometry">
                                <mxPoint as="sourcePoint"/>
                                <mxPoint as="targetPoint"/>
                            </mxGeometry>
                        </mxCell>
                                                        
                                            <!-- 属性 -->
                        <mxCell id="2c28335e9d21452a946305e2b15ade22" value="密码" style="ellipse;whiteSpace=wrap;html=1;" parent="1"
                                vertex="1">
                            <mxGeometry x="200" y="3000" width="120" height="60"
                                        as="geometry"/>
                        </mxCell>
                    
                                                        
                    
                                            <!-- 连线 -->
                        <mxCell id="dd4a6a5e61de41aea4adf79e1a36a57c" value="" style="endArrow=none;html=1;" parent="1"
                                source="15f7f0ad7aa4406894fc104e1f5be44e" target="2c28335e9d21452a946305e2b15ade22" edge="1">
                            <mxGeometry width="50" height="50" relative="1" as="geometry">
                                <mxPoint as="sourcePoint"/>
                                <mxPoint as="targetPoint"/>
                            </mxGeometry>
                        </mxCell>
                                                        
                                            <!-- 属性 -->
                        <mxCell id="afeb8e3641ea490993f4bd9d88fecf7e" value="角色：0-普通用户、1-管理员" style="ellipse;whiteSpace=wrap;html=1;" parent="1"
                                vertex="1">
                            <mxGeometry x="300" y="3000" width="120" height="60"
                                        as="geometry"/>
                        </mxCell>
                    
                                                        
                    
                                            <!-- 连线 -->
                        <mxCell id="b8681617575e49e8a4d2e215df218c35" value="" style="endArrow=none;html=1;" parent="1"
                                source="15f7f0ad7aa4406894fc104e1f5be44e" target="afeb8e3641ea490993f4bd9d88fecf7e" edge="1">
                            <mxGeometry width="50" height="50" relative="1" as="geometry">
                                <mxPoint as="sourcePoint"/>
                                <mxPoint as="targetPoint"/>
                            </mxGeometry>
                        </mxCell>
                                                        
                                            <!-- 属性 -->
                        <mxCell id="8e3ecf7ed2b448d1a0852e96253cff1f" value="权限：执行器id列表，多个逗号分割" style="ellipse;whiteSpace=wrap;html=1;" parent="1"
                                vertex="1">
                            <mxGeometry x="400" y="3000" width="120" height="60"
                                        as="geometry"/>
                        </mxCell>
                    
                                                        
                    
                                            <!-- 连线 -->
                        <mxCell id="e85bb02f86c94fc68a7080d689f14351" value="" style="endArrow=none;html=1;" parent="1"
                                source="15f7f0ad7aa4406894fc104e1f5be44e" target="8e3ecf7ed2b448d1a0852e96253cff1f" edge="1">
                            <mxGeometry width="50" height="50" relative="1" as="geometry">
                                <mxPoint as="sourcePoint"/>
                                <mxPoint as="targetPoint"/>
                            </mxGeometry>
                        </mxCell>
                                    
            </root>
        </mxGraphModel>
    </diagram>
</mxfile>

